<svg width="62" height="62" viewBox="0 0 62 62" fill="none" xmlns="http://www.w3.org/2000/svg">
<path d="M56 1H6C3.23858 1 1 3.23858 1 6V56C1 58.7614 3.23858 61 6 61H56C58.7614 61 61 58.7614 61 56V6C61 3.23858 58.7614 1 56 1Z" stroke="#FCAF17" stroke-width="2" stroke-miterlimit="10"/>
<path d="M33.09 34.0514C33.3699 34.3482 33.5897 34.4669 34.0895 34.5659C34.3694 34.6252 35.049 34.7241 36.6482 33.7942C37.4678 33.3194 38.6672 32.4884 39.8866 31.0837C39.5668 30.8462 39.107 30.4901 38.7072 29.9163C37.9476 28.8281 37.8876 27.6806 37.8476 27.0277C37.8476 27.0277 37.6677 24.1391 37.3079 21.4285C36.9681 18.8762 36.7682 17.3923 35.6287 16.1458C34.4493 14.8598 32.8101 14.4839 31.8506 14.3454C31.2709 13.9101 29.8916 13 28.0125 13C24.954 13 23.015 15.4336 22.5952 15.9876C20.996 18.0057 20.6761 20.3601 20.4163 22.7541C20.1964 24.792 20.4163 25.801 19.7766 27.4828C19.1369 29.1843 18.0574 30.3714 17.2778 31.0837C17.6576 31.5387 18.2374 32.1125 19.017 32.706C19.4967 33.082 20.2364 33.6162 21.2958 34.0119C22.2754 34.3878 23.8346 34.6252 24.6142 34.0316" stroke="#FCAF17" stroke-width="2" stroke-miterlimit="10" stroke-linecap="round" stroke-linejoin="round"/>
<path d="M24.5543 34.0515C24.5543 34.0515 24.6742 35.6343 23.9346 36.3663C23.2149 37.0786 17.9775 38.7801 16.3383 40.0859C14.6992 41.3918 13 43.4296 13 45.5269H28.6722" stroke="#FCAF17" stroke-width="2" stroke-miterlimit="10" stroke-linecap="round" stroke-linejoin="round"/>
<path d="M33.0901 34.0515C33.0901 34.0515 33.17 35.6343 33.8297 36.3861C34.5094 37.1775 35.9087 37.3952 35.9087 37.3952" stroke="#FCAF17" stroke-width="2" stroke-miterlimit="10" stroke-linecap="round" stroke-linejoin="round"/>
<path d="M24.3345 35.7332C24.3345 35.7332 28.5124 38.879 33.45 35.7332" stroke="#FCAF17" stroke-width="2" stroke-miterlimit="10" stroke-linecap="round" stroke-linejoin="round"/>
<path d="M30.2715 47.7625L30.1116 47.6042C29.8317 47.3074 29.8117 46.8524 30.0716 46.5556L40.7063 34.17L44.1646 37.6918L31.3309 47.8416C31.0111 48.079 30.5513 48.0395 30.2715 47.7625Z" stroke="#FCAF17" stroke-width="2" stroke-miterlimit="10" stroke-linecap="round" stroke-linejoin="round"/>
<path d="M48.8823 33.3392L48.6824 33.0028C47.9228 31.697 46.8433 30.6088 45.5639 29.7976L45.1642 29.5404C44.8243 29.3228 44.3645 29.4019 44.1247 29.7185L40.7064 34.1306L44.1646 37.6523L48.6824 34.3284C49.0022 34.1108 49.1022 33.6755 48.8823 33.3392Z" stroke="#FCAF17" stroke-width="2" stroke-miterlimit="10" stroke-linecap="round" stroke-linejoin="round"/>
<path d="M41.1861 40.0265H46.3635C46.9232 40.0265 47.383 40.4816 47.383 41.0355V46.9711C47.383 47.5251 46.9232 47.9801 46.3635 47.9801H36.3085C35.7488 47.9801 35.289 47.5251 35.289 46.9711V44.676" stroke="#FCAF17" stroke-width="2" stroke-miterlimit="10" stroke-linecap="round" stroke-linejoin="round"/>
<path d="M43.4449 40.0265V47.9999" stroke="#FCAF17" stroke-width="2" stroke-miterlimit="10" stroke-linecap="round" stroke-linejoin="round"/>
<path d="M39.2869 48V44.0034V41.5302" stroke="#FCAF17" stroke-width="2" stroke-miterlimit="10" stroke-linecap="round" stroke-linejoin="round"/>
<path d="M47.4228 44.0035H39.2869H36.1484" stroke="#FCAF17" stroke-width="2" stroke-miterlimit="10" stroke-linecap="round" stroke-linejoin="round"/>
</svg>
