<svg width="62" height="62" viewBox="0 0 62 62" fill="none" xmlns="http://www.w3.org/2000/svg">
<path d="M56 1H6C3.23858 1 1 3.23858 1 6V56C1 58.7614 3.23858 61 6 61H56C58.7614 61 61 58.7614 61 56V6C61 3.23858 58.7614 1 56 1Z" stroke="#FCAF17" stroke-width="2" stroke-miterlimit="10"/>
<path d="M30.6103 27.1664C31.0101 27.9549 31.23 28.8242 31.23 29.7744C31.23 32.9486 28.6714 35.5365 25.5331 35.5365C22.3949 35.5365 19.8363 32.9486 19.8363 29.7744C19.8363 28.8444 20.0562 27.9549 20.456 27.1664" stroke="#FCAF17" stroke-width="2" stroke-miterlimit="10" stroke-linecap="round" stroke-linejoin="round"/>
<path d="M30.6101 27.1664H20.4557L20.8156 21.0808L21.6151 20.8584C24.1337 20.1508 26.7922 20.1306 29.3108 20.818L30.2703 21.0808L30.6101 27.1664Z" stroke="#FCAF17" stroke-width="2" stroke-miterlimit="10" stroke-linecap="round" stroke-linejoin="round"/>
<path d="M23.2144 23.8506H27.7318" stroke="#FCAF17" stroke-width="2" stroke-miterlimit="10" stroke-linecap="round" stroke-linejoin="round"/>
<path d="M25.473 26.1352V21.5862" stroke="#FCAF17" stroke-width="2" stroke-miterlimit="10" stroke-linecap="round" stroke-linejoin="round"/>
<path d="M13 42.3297C13 39.4385 18.6369 37.1135 25.573 37.1135C32.4892 37.1135 38.1061 39.4588 38.1061 42.3297V47H31.1899H19.9561H13V42.3297V42.3297Z" stroke="#FCAF17" stroke-width="2" stroke-miterlimit="10" stroke-linecap="round" stroke-linejoin="round"/>
<path d="M25.5529 46.9999L21.1753 37.4369" stroke="#FCAF17" stroke-width="2" stroke-miterlimit="10" stroke-linecap="round" stroke-linejoin="round"/>
<path d="M25.533 46.9999L29.9106 37.4369" stroke="#FCAF17" stroke-width="2" stroke-miterlimit="10" stroke-linecap="round" stroke-linejoin="round"/>
<path d="M43.843 29.4308H39.2256C36.4072 29.4308 34.0884 27.0855 34.0884 24.2348C34.0884 23.9113 34.3483 23.6484 34.6681 23.6484H48.4205C48.7403 23.6484 49.0002 23.9113 49.0002 24.2348C48.9802 27.1057 46.6615 29.4308 43.843 29.4308Z" stroke="#FCAF17" stroke-width="2" stroke-miterlimit="10" stroke-linecap="round" stroke-linejoin="round"/>
<path d="M37.5264 20.1305C37.5264 20.1305 40.3648 20.9999 41.5042 23.6484C41.5042 23.6484 41.5641 20.8786 44.2226 18.1088" stroke="#FCAF17" stroke-width="2" stroke-miterlimit="10" stroke-linecap="round" stroke-linejoin="round"/>
<path d="M38.8855 21.7683C38.8855 21.7683 37.3464 22.6377 36.247 21.7683C35.1476 20.8989 34.468 19.1602 34.468 19.1602C34.468 19.1602 36.1071 17.9067 38.106 18.1695C40.1049 18.4121 40.0449 21.5055 40.0449 21.5055" stroke="#FCAF17" stroke-width="2" stroke-miterlimit="10" stroke-linecap="round" stroke-linejoin="round"/>
<path d="M42.8435 21.8086C42.8435 21.8086 47.241 21.1616 47.221 18.4322C47.201 15.7028 46.8013 15.9859 47.3809 15.0154C47.3809 15.0154 43.3832 14.7122 41.6042 16.7946C39.8251 18.877 41.844 21.5053 41.844 21.5053" stroke="#FCAF17" stroke-width="2" stroke-miterlimit="10" stroke-linecap="round" stroke-linejoin="round"/>
</svg>
