<svg width="62" height="62" viewBox="0 0 62 62" fill="none" xmlns="http://www.w3.org/2000/svg">
<path d="M56 1H6C3.23858 1 1 3.23858 1 6V56C1 58.7614 3.23858 61 6 61H56C58.7614 61 61 58.7614 61 56V6C61 3.23858 58.7614 1 56 1Z" stroke="#FCAF17" stroke-width="2" stroke-miterlimit="10"/>
<path d="M39.74 21.4545H45.44C47.4 21.4545 49 23.0588 49 25.0241V42.4305C49 44.3957 47.4 46 45.44 46H16.56C14.6 46 13 44.3957 13 42.4305V25.0241C13 23.0588 14.6 21.4545 16.56 21.4545H22.26V19.7099C22.26 17.6644 23.94 16 25.96 16H36.02C38.06 16 39.72 17.6845 39.72 19.7099V21.4545H39.74Z" stroke="#FCAF17" stroke-width="2" stroke-miterlimit="10" stroke-linecap="round" stroke-linejoin="round"/>
<path d="M36.3 21.4747H25.7V20.5522C25.7 19.73 26.38 19.0482 27.2 19.0482H34.78C35.6 19.0482 36.28 19.73 36.28 20.5522V21.4747H36.3Z" stroke="#FCAF17" stroke-width="2" stroke-miterlimit="10" stroke-linecap="round" stroke-linejoin="round"/>
<path d="M33.8 36.3744V38.3798C33.8 39.1619 33.16 39.8036 32.38 39.8036H29.6C28.82 39.8036 28.1799 39.1619 28.1799 38.3798V36.3744H26.1799C25.3999 36.3744 24.7599 35.7327 24.7599 34.9506V32.1833C24.7599 31.4012 25.3999 30.7595 26.1799 30.7595H28.1799V28.7541C28.1799 27.972 28.82 27.3303 29.6 27.3303H32.38C33.16 27.3303 33.8 27.972 33.8 28.7541V30.7595H35.8C36.58 30.7595 37.22 31.4012 37.22 32.1833V34.9506C37.22 35.7327 36.58 36.3744 35.8 36.3744H33.8Z" stroke="#FCAF17" stroke-width="2" stroke-miterlimit="10" stroke-linecap="round" stroke-linejoin="round"/>
</svg>
