<svg width="62" height="62" viewBox="0 0 62 62" fill="none" xmlns="http://www.w3.org/2000/svg">
<path d="M56 1H6C3.23858 1 1 3.23858 1 6V56C1 58.7614 3.23857 61 6 61H56C58.7614 61 61 58.7614 61 56V6C61 3.23858 58.7614 1 56 1Z" stroke="#FCAF17" stroke-width="2" stroke-miterlimit="10"/>
<path d="M40.4714 39.3526C38.8765 40.9452 36.2849 40.9452 34.69 39.3325L21.7716 26.1482C20.1967 24.5354 20.1967 21.9147 21.7916 20.3019C23.3864 18.7093 25.9781 18.7093 27.5729 20.3221L40.4914 33.5064C42.0663 35.1191 42.0663 37.76 40.4714 39.3526Z" stroke="#FCAF17" stroke-width="2" stroke-miterlimit="10" stroke-linecap="round" stroke-linejoin="round"/>
<path d="M21.8116 20.3019L16.6084 15" stroke="#FCAF17" stroke-width="2" stroke-miterlimit="10" stroke-linecap="round" stroke-linejoin="round"/>
<path d="M42.0489 37.757L38.9208 40.8944L42.262 44.3009L45.3901 41.1636L42.0489 37.757Z" stroke="#FCAF17" stroke-width="2" stroke-miterlimit="10" stroke-linecap="round" stroke-linejoin="round"/>
<path d="M46.4755 45.4652C48.422 43.5129 49.4028 41.3215 48.6663 40.5706C47.9297 39.8196 45.7546 40.7934 43.8081 42.7457C41.8616 44.6979 40.8808 46.8893 41.6174 47.6403C42.354 48.3913 44.529 47.4174 46.4755 45.4652Z" stroke="#FCAF17" stroke-width="2" stroke-miterlimit="10" stroke-linecap="round" stroke-linejoin="round"/>
<path d="M33.9724 38.5865L35.328 37.2358" stroke="#FCAF17" stroke-width="2" stroke-miterlimit="10" stroke-linecap="round" stroke-linejoin="round"/>
<path d="M24.1639 28.5874L25.5195 27.2166" stroke="#FCAF17" stroke-width="2" stroke-miterlimit="10" stroke-linecap="round" stroke-linejoin="round"/>
<path d="M28.7093 33.2241L30.0649 31.8533" stroke="#FCAF17" stroke-width="2" stroke-miterlimit="10" stroke-linecap="round" stroke-linejoin="round"/>
<path d="M31.3408 35.9053L34.5107 32.7403" stroke="#FCAF17" stroke-width="2" stroke-miterlimit="10" stroke-linecap="round" stroke-linejoin="round"/>
<path d="M26.4366 30.9058L29.6064 27.7206" stroke="#FCAF17" stroke-width="2" stroke-miterlimit="10" stroke-linecap="round" stroke-linejoin="round"/>
<path d="M16.9672 26.4504C17.7048 26.4504 18.283 25.8456 18.283 25.0997C18.283 24.8376 18.2231 24.6361 18.1434 24.4143L18.2232 24.6965C18.2032 24.5957 18.1634 24.4949 18.1235 24.3538C18.1235 24.3538 17.1666 21.8137 16.9074 21.8137C16.6482 21.8137 15.7511 24.3942 15.7511 24.3942C15.6913 24.6159 15.6315 24.8376 15.6315 25.0997C15.6315 25.8456 16.2296 26.4504 16.9672 26.4504C17.2264 26.4504 17.4855 26.3698 17.7048 26.2286L16.9672 26.4504Z" fill="#FCAF17"/>
<path d="M14.3357 22.3379C15.0534 22.3379 15.6514 21.7331 15.6514 20.967C15.6514 20.705 15.5916 20.5034 15.5119 20.2615L15.5916 20.5437C15.5717 20.4429 15.5318 20.322 15.492 20.201C15.492 20.201 14.535 17.6407 14.2759 17.6407C14.0167 17.6407 13.1196 20.2615 13.1196 20.2615C13.0598 20.5034 13 20.705 13 20.967C13.0199 21.7129 13.598 22.3379 14.3357 22.3379C14.5948 22.3379 14.854 22.2573 15.0534 22.1161L14.3357 22.3379Z" fill="#FCAF17"/>
</svg>
