<svg width="62" height="62" viewBox="0 0 62 62" fill="none" xmlns="http://www.w3.org/2000/svg">
<path d="M56 1H6C3.23858 1 1 3.23858 1 6V56C1 58.7614 3.23858 61 6 61H56C58.7614 61 61 58.7614 61 56V6C61 3.23858 58.7614 1 56 1Z" stroke="#FCAF17" stroke-width="2" stroke-miterlimit="10"/>
<path d="M34.1601 32.4356L42.3001 45H20.0801L28.2201 32.4356V19.016L26.2001 17H36.1801L34.1601 19.016V32.4356Z" stroke="#FCAF17" stroke-width="2" stroke-miterlimit="10" stroke-linecap="round" stroke-linejoin="round"/>
<path d="M25.86 36.1011H36.52" stroke="#FCAF17" stroke-width="2" stroke-miterlimit="10" stroke-linecap="round" stroke-linejoin="round"/>
<path d="M20.5602 39.6851C19.9202 39.8276 19.2402 39.8684 18.5602 39.7869C16.0202 39.5018 13.4802 37.0378 13.0802 34.472C12.6402 31.6007 14.1002 29.0145 16.3802 27.7927C16.5602 27.6909 16.6802 27.5076 16.6802 27.304V22.7222H21.8602V27.1003C21.8602 27.4262 22.0202 27.7113 22.3002 27.8742C24.2202 28.9534 25.5402 31.0509 25.5402 33.4538" stroke="#FCAF17" stroke-width="2" stroke-miterlimit="10" stroke-linecap="round" stroke-linejoin="round"/>
<path d="M13.4803 30.9897H25.0603" stroke="#FCAF17" stroke-width="2" stroke-miterlimit="10" stroke-linecap="round" stroke-linejoin="round"/>
<path d="M37.6802 34.5331V23.0684H49.0002L47.6002 25.1862V39.6036H41.4002" stroke="#FCAF17" stroke-width="2" stroke-miterlimit="10" stroke-linecap="round" stroke-linejoin="round"/>
<path d="M47.6002 29.6457H37.6802" stroke="#FCAF17" stroke-width="2" stroke-miterlimit="10" stroke-linecap="round" stroke-linejoin="round"/>
</svg>
